Motion_pl06
version=1
nRows=10
nColumns=43
inDegrees=yes
endheader
time	pelvis_tilt	pelvis_list	pelvis_rotation	pelvis_tx	pelvis_ty	pelvis_tz	hip_flexion_r	hip_adduction_r	hip_rotation_r	knee_angle_r	ankle_angle_r	subtalar_angle_r	mtp_angle_r	hip_flexion_l	hip_adduction_l	hip_rotation_l	knee_angle_l	ankle_angle_l	subtalar_angle_l	mtp_angle_l	lumbar_extension	lumbar_bending	lumbar_rotation	neck_flexion	neck_lateral_bending	neck_rotation	arm_flex_r	arm_add_r	arm_rot_r	elbow_flex_r	pro_sup_r	wrist_flex_r	wrist_dev_r	hand_finger_flex_r	arm_flex_l	arm_add_l	arm_rot_l	elbow_flex_l	pro_sup_l	wrist_flex_l	wrist_dev_l	hand_finger_flex_l
      0.54250000	      0.61365750	     -5.92347942	     85.12608872	      0.04566255	      1.69690681	      1.18867800	     48.30031087	      2.40546808	     -0.30950785	    -86.46764901	    -20.21065342	     -1.20255297	      6.26921430	     61.45971507	     -5.10238240	      3.48129278	    -63.14682814	    -18.24213975	     -7.57235128	     17.40643114	    -44.08639167	     -2.40729159	      7.95625782	     22.80825108	      2.19098145	     -5.33602616	     63.25260040	    -33.92458690	      8.70865462	     60.64480108	    120.58495577	      2.21211509	    -11.23464271	      6.49278672	     54.79828404	    -28.42726996	     18.06956231	     62.20034005	    123.56559008	     -7.83620028	     -0.30387776	      6.41148218
      0.54500000	      0.62268694	     -5.82301970	     85.01942090	      0.04544720	      1.69322177	      1.18350571	     48.36346286	      2.40401389	     -0.32780492	    -85.57605282	    -20.29795133	     -1.08974505	      6.27839102	     61.08581874	     -5.18914349	      3.51525192	    -62.31907048	    -18.38784084	     -7.25389993	     17.39326941	    -44.19212753	     -2.43117324	      7.97713308	     22.75002800	      2.19840958	     -5.25284503	     62.22829251	    -34.16843452	      8.29619892	     60.79531640	    120.27630838	      2.21277595	    -11.37194788	      6.47852687	     53.49021446	    -28.86818971	     17.73591134	     62.48106538	    123.39629364	     -8.27627388	     -0.37416953	      6.34637722
      0.54750000	      0.62952006	     -5.72032858	     84.91653274	      0.04521690	      1.68948022	      1.17831537	     48.41345503	      2.38473647	     -0.36596630	    -84.67737320	    -20.39786595	     -0.99794421	      6.27970217	     60.71208564	     -5.27805115	      3.53565957	    -61.50614132	    -18.54960953	     -6.92688582	     17.38135372	    -44.29194931	     -2.45288530	      7.99262301	     22.65218195	      2.19080693	     -5.17449182	     61.18085720	    -34.43323298	      7.91681679	     60.94839876	    119.94136486	      2.20616271	    -11.48195887	      6.44357799	     52.17065904	    -29.27533100	     17.36243623	     62.73241391	    123.22407923	     -8.68782417	     -0.42059362	      6.31415491
      0.55000000	      0.63585925	     -5.61622119	     84.81860510	      0.04495056	      1.68569927	      1.17309421	     48.44892764	      2.34522195	     -0.41738415	    -83.76749984	    -20.51351306	     -0.92203359	      6.27580313	     60.32891986	     -5.36966885	      3.53836816	    -60.69356427	    -18.71933231	     -6.57165016	     17.37438780	    -44.39391782	     -2.46686257	      8.00434883	     22.58469172	      2.17917333	     -5.09319127	     60.11718830	    -34.69037863	      7.51451576	     61.10864137	    119.55820743	      2.18962902	    -11.56845733	      6.37964054	     50.80784663	    -29.64244767	     16.91194076	     62.97437010	    123.04207690	     -9.11101218	     -0.46392886	      6.31449710
      0.55250000	      0.64117842	     -5.50619533	     84.72489997	      0.04465635	      1.68184622	      1.16785033	     48.46794801	      2.28649029	     -0.48386241	    -82.85737214	    -20.63814224	     -0.86355148	      6.26593194	     59.93536137	     -5.46650861	      3.51635013	    -59.88470889	    -18.90239256	     -6.21035174	     17.37080483	    -44.49492656	     -2.47394220	      8.01179411	     22.49589877	      2.16392093	     -5.01299048	     59.03879483	    -34.95466287	      7.13034468	     61.27536199	    119.16820030	      2.18046727	    -11.63699427	      6.29634010	     49.42286976	    -29.99059034	     16.43030910	     63.19973658	    122.87094767	     -9.51678179	     -0.52369963	      6.35418028
      0.55500000	      0.65684783	     -5.40119689	     84.64286792	      0.04436119	      1.67805806	      1.16261241	     48.47109706	      2.23871876	     -0.55415260	    -81.92586025	    -20.76413993	     -0.83324635	      6.25643186	     59.50065385	     -5.57102234	      3.48492301	    -59.00545049	    -19.04290889	     -5.79809409	     17.39076249	    -44.61766614	     -2.47259197	      7.99886673	     22.56421751	      2.15504491	     -4.90799675	     57.97084116	    -35.16672578	      6.68637001	     61.41306862	    118.69235448	      2.19792563	    -11.64738943	      6.15318202	     47.98513715	    -30.30109582	     15.81924235	     63.43545556	    122.70322737	     -9.98592317	     -0.61835122	      6.49164963
      0.55750000	      0.66763728	     -5.26555187	     84.55319490	      0.04405639	      1.67414823	      1.15728834	     48.42560118	      2.16615283	     -0.63706715	    -80.99339181	    -20.89565503	     -0.81474488	      6.23675344	     59.06368138	     -5.68899930	      3.42630944	    -58.19915923	    -19.24902262	     -5.42323762	     17.40957157	    -44.74187227	     -2.47509693	      7.98709823	     22.49561875	      2.13920646	     -4.81120602	     56.87119834	    -35.42306432	      6.31169070	     61.58526031	    118.28954274	      2.23669890	    -11.67589947	      5.99613594	     46.53600041	    -30.62124094	     15.24765608	     63.64482705	    122.58324759	    -10.42290583	     -0.75976311	      6.68889561
      0.56000000	      0.68049706	     -5.12023606	     84.46107645	      0.04377269	      1.67014652	      1.15196944	     48.34964085	      2.10306247	     -0.73220585	    -80.05005115	    -21.01760111	     -0.80717012	      6.20697985	     58.61506356	     -5.80147948	      3.34406694	    -57.40560760	    -19.48425926	     -5.08471697	     17.42852710	    -44.86861770	     -2.48148180	      7.98495744	     22.38211467	      2.12788653	     -4.72243630	     55.75291413	    -35.69572898	      5.93850046	     61.77627338	    117.95351875	      2.27690322	    -11.73328824	      5.84088969	     45.07757419	    -30.94023217	     14.68607278	     63.83428910	    122.49694695	    -10.86420464	     -0.94819388	      6.90589568
      0.56250000	      0.68894371	     -4.96122415	     84.35397378	      0.04344774	      1.66595839	      1.14657579	     48.25315167	      2.02101345	     -0.82879734	    -79.12100432	    -21.12416419	     -0.79906024	      6.17090138	     58.19701590	     -5.91645821	      3.25164191	    -56.71183074	    -19.77464623	     -4.80868806	     17.42416498	    -44.96958052	     -2.49255483	      8.00206987	     22.10309772	      2.11630423	     -4.65662500	     54.60295998	    -36.02415367	      5.62644624	     61.98799193	    117.72407829	      2.30156069	    -11.83629563	      5.75105773	     43.63283680	    -31.27691287	     14.24304381	     63.98167534	    122.42825053	    -11.23626458	     -1.13091141	      7.03919459
      0.56500000	      0.73198549	     -4.80310680	     84.26341920	      0.04321833	      1.66202328	      1.14120040	     48.10117580	      2.01872693	     -0.90316681	    -78.12124750	    -21.20573684	     -0.85512231	      6.11570899	     57.66870886	     -6.05162542	      3.18307487	    -55.84108431	    -19.99009779	     -4.49338924	     17.45896941	    -45.13652454	     -2.48783252	      8.00537997	     22.18802654	      2.12912138	     -4.55444608	     53.44579389	    -36.21655101	      5.11053064	     62.17148156	    117.42438181	      2.34428366	    -11.89084140	      5.60628799	     42.11600640	    -31.52013302	     13.54248271	     64.12608584	    122.39987178	    -11.80060488	     -1.44165356	      7.29182689
